# xmcd
#
# Track frame offsets:
#	150
#	11472
#	25192
#	52867
#	74737
#	89744
#	104964
#	120451
#	134952
#	148631
#	165331
#	181442
#	206442
#	217321
#	234361
#
# Disc length: 3483 seconds
#
# Revision: 1
# Processed by: cddbd v1.5.2PL0 Copyright (c) Steve Scherf et al.
# Submitted via: audiograbber 1.83.01
#
DISCID=e50d990f
DTITLE=Patrick Smet - Ricky Nye - Julian Phillips - Bob Seeley - 12th Annual Blues
DTITLE=and Boogie Piano Summit
DYEAR=2010
DGENRE=Boogie
TTITLE0=Patrick - Hap Ki Do Stomp
TTITLE1=Patrick - Backpack Blues
TTITLE2=Patrick - Blues For The Night Owls
TTITLE3=Patrick - Cow Cow Blues
TTITLE4=Ricky Nye - Keep On Gwine
TTITLE5=Ricky Nye - Feed The Dog
TTITLE6=Ricky Nye - Swanee River Boogie
TTITLE7=Julian Phillips - Detroit Rocks
TTITLE8=Julian Phillips - Love My Baby
TTITLE9=Julian Phillips - Leroy and Jimmy's Blues
TTITLE10=Julian Phillips - You Can't Get That Stuff No More
TTITLE11=Bob Seeley - Sing, Sing, Sing
TTITLE12=Bob Seeley - Bearcat Crawl
TTITLE13=Bob Seeley - Bob's Boogie
TTITLE14=Bob Seeley - Amazing Grace
EXTD=
EXTT0=
EXTT1=
EXTT2=
EXTT3=
EXTT4=
EXTT5=
EXTT6=
EXTT7=
EXTT8=
EXTT9=
EXTT10=
EXTT11=
EXTT12=
EXTT13=
EXTT14=
PLAYORDER=
